<?xml version="1.0" standalone="no"?>
<!DOCTYPE svg PUBLIC "-//W3C//DTD SVG 20010904//EN"
 "http://www.w3.org/TR/2001/REC-SVG-20010904/DTD/svg10.dtd">
<svg version="1.0" xmlns="http://www.w3.org/2000/svg"
 width="576.000000pt" height="576.000000pt" viewBox="0 0 576.000000 576.000000"
 preserveAspectRatio="xMidYMid meet">
<metadata>
Created by potrace 1.11, written by Peter Selinger 2001-2013
</metadata>
<g transform="translate(0.000000,576.000000) scale(0.100000,-0.100000)"
fill="#000000" stroke="none">
<path d="M2826 5415 c-15 -14 -26 -35 -27 -52 -1 -37 -6 -153 -14 -353 -3 -91
-8 -210 -10 -265 -8 -217 -16 -405 -20 -500 -2 -55 -7 -163 -10 -240 -3 -77
-8 -194 -11 -260 -2 -66 -7 -178 -9 -250 -3 -71 -7 -179 -10 -240 -8 -168 -26
-657 -28 -737 0 -16 -2 -28 -4 -28 -7 0 -48 23 -53 29 -10 14 -249 171 -272
180 -20 8 -88 -9 -88 -21 0 -2 -4 -17 -9 -35 -8 -28 -3 -42 51 -135 34 -56 68
-116 77 -131 22 -39 33 -57 55 -90 21 -31 15 -45 -25 -52 -106 -20 -332 -68
-365 -77 -45 -13 -63 -33 -69 -78 -4 -36 37 -76 85 -83 19 -2 53 -9 75 -15 22
-6 54 -13 70 -15 17 -3 66 -13 110 -22 44 -10 87 -19 95 -20 8 -2 21 -4 28 -4
6 -1 12 -5 12 -11 0 -5 -46 -85 -101 -177 -58 -97 -101 -179 -102 -195 -1 -45
26 -74 70 -76 34 -2 54 8 168 86 72 48 136 92 143 96 12 7 13 -19 8 -150 -4
-88 -9 -229 -12 -314 -2 -85 -7 -160 -9 -167 -3 -9 -17 -9 -57 3 -255 73 -422
173 -601 358 -59 61 -177 221 -175 236 1 3 -10 23 -23 45 -48 76 -96 219 -126
372 -10 51 -10 325 0 388 22 135 93 337 147 414 10 14 35 52 56 85 41 64 82
112 160 190 71 71 86 97 87 155 0 62 -19 94 -98 157 -95 77 -285 274 -285 296
0 3 -17 32 -39 64 -45 69 -93 157 -108 199 -36 97 -55 152 -59 165 -2 8 -8 35
-15 60 -27 110 -36 212 -34 355 3 128 22 287 40 314 2 4 7 22 10 40 3 18 16
59 29 92 27 66 30 154 5 183 -58 69 -111 91 -178 74 -64 -16 -225 -143 -397
-313 -190 -188 -346 -390 -445 -575 -13 -25 -26 -47 -29 -50 -12 -12 -128
-261 -146 -315 -73 -216 -93 -279 -98 -302 -2 -15 -8 -42 -11 -59 -7 -30 1
-39 194 -234 111 -112 200 -205 197 -207 -2 -2 -47 -3 -100 -3 -53 1 -104 1
-113 1 -10 -1 -45 0 -78 0 -33 1 -67 1 -75 0 -8 0 -32 -1 -52 -1 -21 -1 -39
-4 -39 -8 -1 -4 -3 -61 -5 -127 -2 -66 -3 -131 -4 -145 -1 -38 14 -190 25
-249 1 -9 8 -49 15 -89 l12 -74 290 -290 c170 -171 285 -294 279 -298 -6 -3
-34 -4 -61 0 -27 4 -54 4 -60 0 -6 -4 -33 -4 -60 0 -27 4 -54 3 -60 0 -6 -4
-30 -4 -53 -1 -23 4 -52 5 -65 3 -22 -3 -20 -8 40 -125 53 -101 178 -308 198
-327 3 -3 25 -32 50 -65 25 -33 50 -65 55 -71 6 -7 26 -31 45 -55 51 -63 225
-237 300 -300 36 -29 67 -56 70 -59 35 -36 232 -169 348 -236 131 -76 381
-193 447 -209 6 -1 17 -5 25 -8 108 -41 350 -100 459 -113 24 -2 47 -7 51 -9
42 -26 623 -26 745 0 11 2 36 7 55 9 55 8 139 25 184 37 23 6 52 13 66 15 14
3 48 12 75 21 28 9 55 18 60 19 18 3 139 44 160 54 11 5 49 21 85 36 91 37
292 140 352 180 27 19 52 34 55 34 9 0 166 114 252 183 93 75 302 282 366 362
22 28 43 52 46 55 19 17 138 188 202 292 44 71 137 252 137 265 0 9 -29 13
-90 12 -25 0 -52 0 -60 0 -8 1 -37 0 -65 0 -27 -1 -57 -1 -65 0 -8 0 -36 1
-63 1 l-47 0 290 290 c160 160 295 301 299 313 5 12 12 45 15 72 4 28 9 64 12
80 12 70 15 120 18 285 4 203 1 239 -23 239 -9 0 -37 0 -63 0 -27 0 -56 0 -65
0 -10 0 -38 0 -63 0 -25 0 -52 0 -60 0 -8 0 -33 0 -55 0 -22 0 -47 0 -55 0 -8
1 -30 1 -47 1 -18 0 -33 3 -33 5 0 3 90 96 201 206 177 177 200 203 196 227
-6 35 -60 219 -88 297 -50 143 -159 372 -224 475 -16 25 -29 47 -30 50 0 7
-159 232 -176 251 -8 8 -36 41 -64 74 -57 69 -241 254 -304 305 -24 19 -53 43
-65 54 -46 40 -143 104 -171 113 -75 23 -157 -15 -190 -87 -18 -40 -16 -129 3
-153 5 -7 13 -25 17 -42 5 -16 9 -34 11 -40 49 -165 58 -233 58 -405 0 -121
-3 -166 -20 -265 -17 -103 -72 -260 -131 -380 -32 -63 -131 -215 -155 -236
-10 -9 -18 -20 -18 -24 0 -12 -175 -180 -224 -216 -57 -40 -84 -83 -90 -136
-5 -56 20 -101 103 -184 111 -113 205 -251 256 -376 15 -38 31 -77 36 -88 87
-209 88 -564 1 -815 -32 -93 -126 -278 -152 -300 -3 -3 -19 -23 -35 -45 -33
-47 -233 -245 -246 -245 -6 0 -19 -8 -30 -18 -10 -11 -32 -25 -47 -33 -15 -8
-29 -17 -32 -20 -21 -26 -251 -117 -347 -138 l-43 -9 -1 67 c-1 36 -2 93 -4
126 -1 33 -6 145 -10 250 -3 104 -9 193 -11 197 -12 19 18 2 157 -91 140 -95
149 -99 181 -91 46 14 65 42 58 90 -2 13 -72 139 -122 218 -9 15 -23 38 -31
52 -8 14 -24 41 -35 61 -15 24 -18 36 -10 37 18 2 58 10 86 16 41 11 66 16
105 21 22 4 49 10 61 14 11 5 24 9 29 9 4 0 38 6 75 12 82 16 124 51 116 96
-8 45 -38 71 -92 80 -15 3 -72 14 -127 25 -55 12 -111 23 -125 25 -14 3 -32 7
-40 9 -8 2 -31 7 -50 10 -56 10 -63 -10 82 231 86 142 90 153 71 192 -20 41
-59 54 -103 35 -19 -7 -37 -17 -40 -21 -3 -4 -13 -11 -22 -17 -10 -5 -69 -45
-132 -87 -63 -43 -116 -78 -119 -78 -3 0 -5 15 -4 33 0 17 -3 104 -7 192 -4
88 -9 214 -12 280 -6 157 -14 357 -19 475 -12 299 -16 397 -20 510 -2 69 -7
179 -10 245 -3 66 -7 181 -10 255 -3 74 -7 185 -10 245 -3 61 -7 171 -10 245
-18 460 -14 431 -51 454 -34 23 -67 20 -98 -9z"/>
</g>
</svg>
